<?xml version="1.0" encoding="UTF-8" standalone="no"?>
<!DOCTYPE svg PUBLIC "-//W3C//DTD SVG 1.1//EN"
 "http://www.w3.org/Graphics/SVG/1.1/DTD/svg11.dtd">
<!-- Generated by graphviz version 2.40.1 (20161225.0304)
 -->
<!-- Title: models_diagram Pages: 1 -->
<svg width="920pt" height="302pt"
 viewBox="0.00 0.00 919.55 302.00" xmlns="http://www.w3.org/2000/svg" xmlns:xlink="http://www.w3.org/1999/xlink">
<g id="graph0" class="graph" transform="scale(1 1) rotate(0) translate(4 298)">
<title>models_diagram</title>
<polygon fill="transparent" stroke="transparent" points="-4,4 -4,-298 915.55,-298 915.55,4 -4,4"/>
<!-- _diagram_info -->
<g id="node1" class="node">
<title>_diagram_info</title>
<text text-anchor="start" x="8" y="-258.6" font-family="Times,serif" font-size="13.00" fill="#000000">Models diagram</text>
<text text-anchor="start" x="8" y="-245.6" font-family="Times,serif" font-size="13.00" fill="#000000">Date: Feb 22 2017 &#45; 11:57</text>
<text text-anchor="start" x="8" y="-232.6" font-family="Times,serif" font-size="13.00" fill="#000000">Migration version: 20170222143127</text>
<text text-anchor="start" x="8" y="-219.6" font-family="Times,serif" font-size="13.00" fill="#000000">Generated by RailRoady 1.5.2</text>
<text text-anchor="start" x="8" y="-206.6" font-family="Times,serif" font-size="13.00" fill="#000000">http://railroady.prestonlee.com</text>
</g>
<!-- ApplicationRecord -->
<g id="node2" class="node">
<title>ApplicationRecord</title>
<ellipse fill="none" stroke="#000000" cx="302.6877" cy="-236.5" rx="77.2916" ry="18"/>
<text text-anchor="middle" x="302.6877" y="-232.3" font-family="Times,serif" font-size="14.00" fill="#000000">ApplicationRecord</text>
</g>
<!-- Category -->
<g id="node3" class="node">
<title>Category</title>
<path fill="none" stroke="#000000" d="M409.8254,-179.5C409.8254,-179.5 633.55,-179.5 633.55,-179.5 639.55,-179.5 645.55,-185.5 645.55,-191.5 645.55,-191.5 645.55,-281.5 645.55,-281.5 645.55,-287.5 639.55,-293.5 633.55,-293.5 633.55,-293.5 409.8254,-293.5 409.8254,-293.5 403.8254,-293.5 397.8254,-287.5 397.8254,-281.5 397.8254,-281.5 397.8254,-191.5 397.8254,-191.5 397.8254,-185.5 403.8254,-179.5 409.8254,-179.5"/>
<text text-anchor="middle" x="521.6877" y="-278.3" font-family="Times,serif" font-size="14.00" fill="#000000">Category</text>
<polyline fill="none" stroke="#000000" points="397.8254,-271.5 645.55,-271.5 "/>
<text text-anchor="start" x="405.8254" y="-256.3" font-family="Times,serif" font-size="14.00" fill="#000000">id :integer</text>
<text text-anchor="start" x="405.8254" y="-242.3" font-family="Times,serif" font-size="14.00" fill="#000000">name :character varying</text>
<text text-anchor="start" x="405.8254" y="-228.3" font-family="Times,serif" font-size="14.00" fill="#000000">created_at :timestamp without time zone</text>
<text text-anchor="start" x="405.8254" y="-214.3" font-family="Times,serif" font-size="14.00" fill="#000000">updated_at :timestamp without time zone</text>
<text text-anchor="start" x="405.8254" y="-200.3" font-family="Times,serif" font-size="14.00" fill="#000000">serie :integer</text>
<text text-anchor="start" x="405.8254" y="-186.3" font-family="Times,serif" font-size="14.00" fill="#000000">item_id :integer</text>
</g>
<!-- Item -->
<g id="node4" class="node">
<title>Item</title>
<path fill="none" stroke="#000000" d="M542.8254,-.5C542.8254,-.5 766.55,-.5 766.55,-.5 772.55,-.5 778.55,-6.5 778.55,-12.5 778.55,-12.5 778.55,-130.5 778.55,-130.5 778.55,-136.5 772.55,-142.5 766.55,-142.5 766.55,-142.5 542.8254,-142.5 542.8254,-142.5 536.8254,-142.5 530.8254,-136.5 530.8254,-130.5 530.8254,-130.5 530.8254,-12.5 530.8254,-12.5 530.8254,-6.5 536.8254,-.5 542.8254,-.5"/>
<text text-anchor="middle" x="654.6877" y="-127.3" font-family="Times,serif" font-size="14.00" fill="#000000">Item</text>
<polyline fill="none" stroke="#000000" points="530.8254,-120.5 778.55,-120.5 "/>
<text text-anchor="start" x="538.8254" y="-105.3" font-family="Times,serif" font-size="14.00" fill="#000000">user_id :integer</text>
<text text-anchor="start" x="538.8254" y="-91.3" font-family="Times,serif" font-size="14.00" fill="#000000">name :character varying</text>
<text text-anchor="start" x="538.8254" y="-77.3" font-family="Times,serif" font-size="14.00" fill="#000000">created_at :timestamp without time zone</text>
<text text-anchor="start" x="538.8254" y="-63.3" font-family="Times,serif" font-size="14.00" fill="#000000">updated_at :timestamp without time zone</text>
<text text-anchor="start" x="538.8254" y="-49.3" font-family="Times,serif" font-size="14.00" fill="#000000">category_id :integer</text>
<text text-anchor="start" x="538.8254" y="-35.3" font-family="Times,serif" font-size="14.00" fill="#000000">size :integer</text>
<text text-anchor="start" x="538.8254" y="-21.3" font-family="Times,serif" font-size="14.00" fill="#000000">description :text</text>
<text text-anchor="start" x="538.8254" y="-7.3" font-family="Times,serif" font-size="14.00" fill="#000000">id :integer</text>
</g>
<!-- Category&#45;&gt;Item -->
<g id="edge1" class="edge">
<title>Category&#45;&gt;Item</title>
<path fill="none" stroke="#7d4e68" d="M573.0224,-172.8141C578.8787,-165.5488 584.9007,-158.0779 590.8934,-150.6434"/>
<ellipse fill="none" stroke="#7d4e68" cx="570.3417" cy="-176.1398" rx="4" ry="4"/>
<polygon fill="#7d4e68" stroke="#7d4e68" points="591.0996,-150.3875 600.8789,-145.4259 594.2375,-146.4947 597.3754,-142.6018 597.3754,-142.6018 597.3754,-142.6018 594.2375,-146.4947 593.8718,-139.7778 591.0996,-150.3875 591.0996,-150.3875"/>
</g>
<!-- User -->
<g id="node5" class="node">
<title>User</title>
<path fill="none" stroke="#000000" d="M675.8254,-179.5C675.8254,-179.5 899.55,-179.5 899.55,-179.5 905.55,-179.5 911.55,-185.5 911.55,-191.5 911.55,-191.5 911.55,-281.5 911.55,-281.5 911.55,-287.5 905.55,-293.5 899.55,-293.5 899.55,-293.5 675.8254,-293.5 675.8254,-293.5 669.8254,-293.5 663.8254,-287.5 663.8254,-281.5 663.8254,-281.5 663.8254,-191.5 663.8254,-191.5 663.8254,-185.5 669.8254,-179.5 675.8254,-179.5"/>
<text text-anchor="middle" x="787.6877" y="-278.3" font-family="Times,serif" font-size="14.00" fill="#000000">User</text>
<polyline fill="none" stroke="#000000" points="663.8254,-271.5 911.55,-271.5 "/>
<text text-anchor="start" x="671.8254" y="-256.3" font-family="Times,serif" font-size="14.00" fill="#000000">id :integer</text>
<text text-anchor="start" x="671.8254" y="-242.3" font-family="Times,serif" font-size="14.00" fill="#000000">name :character varying</text>
<text text-anchor="start" x="671.8254" y="-228.3" font-family="Times,serif" font-size="14.00" fill="#000000">email :character varying</text>
<text text-anchor="start" x="671.8254" y="-214.3" font-family="Times,serif" font-size="14.00" fill="#000000">created_at :timestamp without time zone</text>
<text text-anchor="start" x="671.8254" y="-200.3" font-family="Times,serif" font-size="14.00" fill="#000000">updated_at :timestamp without time zone</text>
<text text-anchor="start" x="671.8254" y="-186.3" font-family="Times,serif" font-size="14.00" fill="#000000">item_id :integer</text>
</g>
<!-- User&#45;&gt;Item -->
<g id="edge2" class="edge">
<title>User&#45;&gt;Item</title>
<path fill="none" stroke="#69ebfb" d="M736.3531,-172.8141C730.4968,-165.5488 724.4748,-158.0779 718.4821,-150.6434"/>
<ellipse fill="none" stroke="#69ebfb" cx="739.0338" cy="-176.1398" rx="4" ry="4"/>
<polygon fill="#69ebfb" stroke="#69ebfb" points="718.2758,-150.3875 715.5037,-139.7778 715.138,-146.4947 712.0001,-142.6018 712.0001,-142.6018 712.0001,-142.6018 715.138,-146.4947 708.4966,-145.4259 718.2758,-150.3875 718.2758,-150.3875"/>
</g>
</g>
</svg>
